<?xml version="1.0" encoding="UTF-8"?>
<svg xmlns="http://www.w3.org/2000/svg" width="1400" height="850" viewBox="0 0 1400 850">
  <defs>
    <radialGradient id="bg" cx="50%" cy="45%" r="72%">
      <stop offset="0" stop-color="#ffffff"/>
      <stop offset="1" stop-color="#f1f5fa"/>
    </radialGradient>
    <linearGradient id="chip" x1="0" y1="0" x2="1" y2="1">
      <stop offset="0" stop-color="#1c2b43"/>
      <stop offset="0.55" stop-color="#0b1526"/>
      <stop offset="1" stop-color="#050a14"/>
    </linearGradient>
    <linearGradient id="edge" x1="0" y1="0" x2="1" y2="1">
      <stop offset="0" stop-color="#5bb0ff"/>
      <stop offset="0.5" stop-color="#1677ef"/>
      <stop offset="1" stop-color="#2b8fff"/>
    </linearGradient>
    <linearGradient id="heat" x1="0" y1="1" x2="0" y2="0">
      <stop offset="0" stop-color="#ffb347"/>
      <stop offset="0.5" stop-color="#ff6b4a"/>
      <stop offset="1" stop-color="#ff3f55"/>
    </linearGradient>
    <filter id="shadow" x="-20%" y="-20%" width="140%" height="155%">
      <feDropShadow dx="0" dy="22" stdDeviation="26" flood-color="#0b1628" flood-opacity=".22"/>
    </filter>
  </defs>
  <rect width="1400" height="850" fill="url(#bg)"/>
  <ellipse cx="700" cy="760" rx="440" ry="55" fill="#91a6bd" opacity=".16"/>
  <g filter="url(#shadow)">
    <rect x="250" y="155" width="900" height="555" rx="70" fill="#040912" stroke="#2a3c55" stroke-width="18"/>
    <rect x="262" y="167" width="876" height="531" rx="60" fill="url(#chip)" stroke="url(#edge)" stroke-width="5"/>
    <rect x="294" y="199" width="812" height="467" rx="46" fill="#091426" stroke="#304662" stroke-width="2"/>
    <g fill="#bec8d4" stroke="#7c8b9c" stroke-width="2">
      <rect x="315" y="90" width="18" height="92" rx="7"/><rect x="363" y="90" width="18" height="92" rx="7"/><rect x="411" y="90" width="18" height="92" rx="7"/><rect x="459" y="90" width="18" height="92" rx="7"/><rect x="507" y="90" width="18" height="92" rx="7"/><rect x="555" y="90" width="18" height="92" rx="7"/><rect x="603" y="90" width="18" height="92" rx="7"/><rect x="651" y="90" width="18" height="92" rx="7"/><rect x="699" y="90" width="18" height="92" rx="7"/><rect x="747" y="90" width="18" height="92" rx="7"/><rect x="795" y="90" width="18" height="92" rx="7"/><rect x="843" y="90" width="18" height="92" rx="7"/><rect x="891" y="90" width="18" height="92" rx="7"/><rect x="939" y="90" width="18" height="92" rx="7"/><rect x="987" y="90" width="18" height="92" rx="7"/><rect x="1035" y="90" width="18" height="92" rx="7"/>
      <rect x="315" y="684" width="18" height="92" rx="7"/><rect x="363" y="684" width="18" height="92" rx="7"/><rect x="411" y="684" width="18" height="92" rx="7"/><rect x="459" y="684" width="18" height="92" rx="7"/><rect x="507" y="684" width="18" height="92" rx="7"/><rect x="555" y="684" width="18" height="92" rx="7"/><rect x="603" y="684" width="18" height="92" rx="7"/><rect x="651" y="684" width="18" height="92" rx="7"/><rect x="699" y="684" width="18" height="92" rx="7"/><rect x="747" y="684" width="18" height="92" rx="7"/><rect x="795" y="684" width="18" height="92" rx="7"/><rect x="843" y="684" width="18" height="92" rx="7"/><rect x="891" y="684" width="18" height="92" rx="7"/><rect x="939" y="684" width="18" height="92" rx="7"/><rect x="987" y="684" width="18" height="92" rx="7"/><rect x="1035" y="684" width="18" height="92" rx="7"/>
      <rect x="145" y="240" width="110" height="18" rx="7"/><rect x="145" y="282" width="110" height="18" rx="7"/><rect x="145" y="324" width="110" height="18" rx="7"/><rect x="145" y="366" width="110" height="18" rx="7"/><rect x="145" y="408" width="110" height="18" rx="7"/><rect x="145" y="450" width="110" height="18" rx="7"/><rect x="145" y="492" width="110" height="18" rx="7"/><rect x="145" y="534" width="110" height="18" rx="7"/><rect x="145" y="576" width="110" height="18" rx="7"/><rect x="145" y="618" width="110" height="18" rx="7"/>
      <rect x="1145" y="240" width="110" height="18" rx="7"/><rect x="1145" y="282" width="110" height="18" rx="7"/><rect x="1145" y="324" width="110" height="18" rx="7"/><rect x="1145" y="366" width="110" height="18" rx="7"/><rect x="1145" y="408" width="110" height="18" rx="7"/><rect x="1145" y="450" width="110" height="18" rx="7"/><rect x="1145" y="492" width="110" height="18" rx="7"/><rect x="1145" y="534" width="110" height="18" rx="7"/><rect x="1145" y="576" width="110" height="18" rx="7"/><rect x="1145" y="618" width="110" height="18" rx="7"/>
    </g>
    <g fill="#0e192b" stroke="#607790" stroke-width="3">
      <circle cx="335" cy="240" r="16"/><circle cx="1065" cy="240" r="16"/>
      <circle cx="335" cy="628" r="16"/><circle cx="1065" cy="628" r="16"/>
    </g>
    <g transform="translate(515 245)">
      <path d="M0 58 L55 28 L125 25 L170 40 L137 52 L92 51 L53 69 L89 69 L67 88 L28 83 Z" fill="#f9fbff"/>
      <path d="M22 49 L70 22 L112 22 L67 41 Z" fill="#2e91ff"/>
      <path d="M42 66 L98 45 L74 70 Z" fill="#2e91ff"/>
      <path d="M72 86 L128 49 L100 91 Z" fill="#2e91ff"/>
      <circle cx="140" cy="38" r="4" fill="#2e91ff"/>
    </g>
    <text x="555" y="445" text-anchor="middle" font-family="Arial, Helvetica, sans-serif" font-size="78" font-weight="700" letter-spacing="6" fill="#f8fbff">FALCON-<tspan fill="#3597ff">X</tspan></text>
    <rect x="395" y="468" width="320" height="5" rx="2.5" fill="#2f91ff"/>
    <text x="555" y="535" text-anchor="middle" font-family="Arial, Helvetica, sans-serif" font-size="35" font-weight="600" letter-spacing="7" fill="#edf3fb">8-BIT ASP</text>
    <g transform="translate(880 285)">
      <rect x="46" y="18" width="28" height="176" rx="14" fill="#111b2d" stroke="#e8edf3" stroke-width="5"/>
      <circle cx="60" cy="218" r="48" fill="#111b2d" stroke="#e8edf3" stroke-width="5"/>
      <rect x="54" y="54" width="12" height="145" rx="6" fill="url(#heat)"/>
      <circle cx="60" cy="218" r="29" fill="url(#heat)"/>
      <g stroke="#ff5b57" stroke-width="5" stroke-linecap="round">
        <line x1="100" y1="55" x2="135" y2="55"/>
        <line x1="104" y1="90" x2="131" y2="90"/>
        <line x1="100" y1="125" x2="135" y2="125"/>
        <line x1="104" y1="160" x2="131" y2="160"/>
      </g>
    </g>
  </g>
</svg>